# xmcd
#
# Track frame offsets:
#	150
#	12523
#	28018
#	42403
#	62877
#	75958
#	95409
#	111531
#	130355
#
# Disc length: 2184 seconds
#
# Revision: 0
# Processed by: cddbd v1.4PL0 Copyright (c) Steve Scherf et al.
# Submitted via: dBpowerAMP V4.0
#
DISCID=76088609
DTITLE=Dina Dina - Live Vol. 1
DYEAR=1900
DGENRE=Blues
TTITLE0=Barefootin'  (Robert Parker
TTITLE1=Done Got Over  (Irma Thomas)
TTITLE2=IOU   (Lee Greenwood)
TTITLE3=City of New Orleans  (Arlo Guthrie)
TTITLE4=Two Winters Long (Irma Thomas)
TTITLE5=Me and Booby McGee (Janis Joplin)
TTITLE6=Sleepwalk (Santo and johnny)
TTITLE7=Driftaway (Dobie Grey)
TTITLE8=Why (Dina Dina)
EXTD=live recording  from 2002
EXTT0=
EXTT1=
EXTT2=
EXTT3=
EXTT4=
EXTT5=
EXTT6=
EXTT7=
EXTT8=
PLAYORDER=
